<?xml version="1.0" encoding="UTF-8" standalone="no"?>
<!DOCTYPE svg PUBLIC "-//W3C//DTD SVG 20010904//EN"
    "http://www.w3.org/TR/2001/REC-SVG-20010904/DTD/svg10.dtd">

<svg xmlns="http://www.w3.org/2000/svg"
     width="3.375in" height="3.34722in"
     viewBox="0 0 243 241">
    <path id="C"
          fill="white" stroke="none" stroke-width="0"
          d="M 243.00,142.00
           C 243.00,142.00 243.00,207.00 243.00,207.00
             242.98,218.22 237.72,220.28 230.00,228.00
             222.28,235.72 220.22,240.98 209.00,241.00
             209.00,241.00 118.00,241.00 118.00,241.00
             118.00,241.00 35.00,241.00 35.00,241.00
             23.78,240.98 21.72,235.72 14.00,228.00
             10.74,224.74 2.02,216.85 0.60,213.00
             -0.12,211.06 0.00,208.09 0.00,206.00
             0.00,206.00 0.00,34.00 0.00,34.00
             0.02,22.78 5.28,20.72 13.00,13.00
             20.72,5.28 22.78,0.02 34.00,0.00
             34.00,0.00 209.00,0.00 209.00,0.00
             220.22,0.02 222.28,5.28 230.00,13.00
             237.72,20.72 242.98,22.78 243.00,34.00
             243.00,34.00 243.00,99.00 243.00,99.00
             243.00,99.00 201.00,99.00 201.00,99.00
             201.00,99.00 201.00,61.00 201.00,61.00
             201.00,58.91 201.12,55.94 200.40,54.00
             199.11,50.49 192.51,43.89 189.00,42.60
             187.06,41.88 184.09,42.00 182.00,42.00
             182.00,42.00 115.00,42.00 115.00,42.00
             115.00,42.00 62.00,42.00 62.00,42.00
             59.91,42.00 56.94,41.88 55.00,42.60
             51.49,43.89 44.89,50.49 43.60,54.00
             42.88,55.94 43.00,58.91 43.00,61.00
             43.00,61.00 43.00,180.00 43.00,180.00
             43.00,182.09 42.88,185.06 43.60,187.00
             44.89,190.51 51.49,197.11 55.00,198.40
             56.94,199.12 59.91,199.00 62.00,199.00
             62.00,199.00 182.00,199.00 182.00,199.00
             184.09,199.00 187.06,199.12 189.00,198.40
             192.51,197.11 199.11,190.51 200.40,187.00
             201.12,185.06 201.00,182.09 201.00,180.00
             201.00,180.00 201.00,142.00 201.00,142.00
             201.00,142.00 243.00,142.00 243.00,142.00 Z"/>
    <path id="S"
          fill="white" stroke="none" stroke-width="0"
          d="M 144.00,170.00
           C 144.00,170.00 73.00,170.00 73.00,170.00
             62.09,169.98 58.02,165.91 58.00,155.00
             58.00,155.00 58.00,72.00 58.00,72.00
             58.00,69.92 57.89,66.93 58.60,65.00
             62.42,54.64 73.48,56.99 82.00,57.00
             82.00,57.00 171.00,57.00 171.00,57.00
             181.91,57.02 185.98,61.09 186.00,72.00
             186.00,72.00 186.00,113.00 186.00,113.00
             186.00,113.00 144.00,113.00 144.00,113.00
             144.00,113.00 144.00,99.00 144.00,99.00
             144.00,99.00 100.00,99.00 100.00,99.00
             100.00,99.00 100.00,128.00 100.00,128.00
             100.00,128.00 171.00,128.00 171.00,128.00
             181.91,128.02 185.98,132.09 186.00,143.00
             186.00,143.00 186.00,226.00 186.00,226.00
             185.98,236.91 181.91,240.98 171.00,241.00
             171.00,241.00 85.00,241.00 85.00,241.00
             76.08,241.00 62.52,243.63 58.60,233.00
             57.89,231.07 58.00,228.08 58.00,226.00
             58.00,226.00 58.00,185.00 58.00,185.00
             58.00,185.00 100.00,185.00 100.00,185.00
             100.00,185.00 100.00,199.00 100.00,199.00
             100.00,199.00 144.00,199.00 144.00,199.00
             144.00,199.00 144.00,170.00 144.00,170.00 Z"/>
</svg>
